<svg class="icon" viewBox="0 0 1024 1024" xmlns="http://www.w3.org/2000/svg" width="200" height="200"><defs><style/></defs><path d="M826.02 184.319c-27.306-27.307-68.266-20.48-95.572 6.826s-20.48 68.266 6.827 95.573a352.636 352.636 0 0 1 116.052 259.411c0 191.145-150.185 341.33-341.33 341.33S170.665 737.275 170.665 546.13a352.636 352.636 0 0 1 116.052-259.411c27.307-27.307 34.133-68.266 6.827-95.573s-68.266-34.133-95.573-6.826C95.572 279.89 34.133 409.597 34.133 546.129a475.132 475.132 0 0 0 477.863 477.863A475.132 475.132 0 0 0 989.86 546.13c0-136.532-61.44-266.238-163.838-361.81z"/><path d="M511.996 614.395c40.96 0 68.266-27.306 68.266-68.266V68.266C580.262 27.306 552.956 0 511.996 0S443.73 27.306 443.73 68.266V546.13c0 40.96 27.307 68.266 68.266 68.266z"/></svg>