<?xml version="1.0" standalone="no"?><!DOCTYPE svg PUBLIC "-//W3C//DTD SVG 1.1//EN" "http://www.w3.org/Graphics/SVG/1.1/DTD/svg11.dtd"><svg t="1598860384092" class="icon" viewBox="0 0 1025 1024" version="1.1" xmlns="http://www.w3.org/2000/svg" p-id="5440" xmlns:xlink="http://www.w3.org/1999/xlink" width="200.1953125" height="200"><defs><style type="text/css"></style></defs><path d="M681.01834183 230.24571051c-34.13993245 0-66.23642965 13.29455901-90.37691676 37.43504611s-37.43504611 56.23698432-37.43504612 90.37691677c0 34.13993245 13.29455901 66.23642965 37.43504612 90.37691676 24.14048711 24.14048711 56.23698432 37.43504611 90.37691676 37.43504612s66.23642965-13.29455901 90.37691676-37.43504612c49.83421838-49.83421838 49.83421838-130.92078023 0-180.75383466C747.25477149 243.54143346 715.15827427 230.24571051 681.01834183 230.24571051zM730.22963257 407.26896526c-13.14435755 13.14552149-30.62126478 20.38429127-49.21129074 20.38429127s-36.06693319-7.23876978-49.21129074-20.38429127c-13.14435755-13.14435755-20.38429127-30.62126478-20.38429127-49.21012679 0-18.59002595 7.23993373-36.06693319 20.38429127-49.21129074 13.14435755-13.14552149 30.62126478-20.38429127 49.21129074-20.38429127s36.06693319 7.23876978 49.21129074 20.38429127C757.36366535 335.9827456 757.36366535 380.13376739 730.22963257 407.26896526zM899.64501789 139.43216242c-58.39685518-58.39685518-136.04043093-90.55739107-218.62667606-90.55739108s-160.22865693 32.16053589-218.62667605 90.55739108c-44.00431331 44.00431331-73.41115961 99.4576896-85.04069689 160.36488533-10.10772992 52.93139171-6.34105515 107.02713515 10.82846322 157.63098966l-40.80234838 40.80118442-36.39993799-36.40110194c-15.22970965-15.2308736-35.5336613-23.6188581-57.16962987-23.6188581-21.63713251 0-41.94108416 8.38798336-57.17079381 23.6188581-31.52130731 31.52247239-31.52247239 82.81329323-0.00116395 114.33576562l36.399938 36.40226702-24.87752136 24.87752136-36.39760896-36.39877405c-15.22970965-15.2308736-35.53482525-23.6188581-57.17079381-23.6188581s-41.93991907 8.38798336-57.17195776 23.62002205c-31.51897941 31.52247239-31.51897941 82.81329323 0.00116395 114.33460167l36.915745 36.91807403c-19.69150293 24.23945671-30.39421554 54.33909248-30.39421554 86.15381674 0 36.6269861 14.18645163 70.98232377 39.94189368 96.73776583 25.75427811 25.75427811 60.1084507 39.93723563 96.73310891 39.93723563s70.97883079-14.18295865 96.73427285-39.93723563l284.29606685-284.28908089c31.95444565 10.84476416 65.30262016 16.33235058 99.38782891 16.33235058 82.58158819 0 160.21701291-32.15704291 218.60804608-90.54924117 58.39569123-58.39685518 90.55622713-136.03926699 90.55622712-218.62551211C990.20124501 275.47259335 958.04070798 197.8290176 899.64501789 139.43216242zM858.47822677 535.51755947c-47.39490361 47.39490361-110.41073835 73.49732238-177.44242005 73.49732238-33.05475755 0-65.2350885-6.34571207-95.64909795-18.86131996-10.86921614-4.47227221-23.3533861-1.97241059-31.65986589 6.33523313l-297.53939399 297.53240804c-14.7593125 14.75814741-34.49389511 22.88648192-55.56981078 22.88648192-21.07475171 0-40.80933433-8.12716942-55.56864682-22.88648192-14.76047645-14.7593125-22.88880981-34.49389511-22.88880982-55.57097586s8.12833337-40.81166336 22.8899749-55.57097586l10.51641742-10.51641742c11.36755826-11.36755826 11.36755826-29.79806777 0-41.16562603l-56.98100451-56.98333354c-8.82228679-8.82345074-8.82228679-23.18222677 0-32.00451357 4.23474403-4.23474403 9.91910571-6.56693931 16.0040027-6.56693931s11.76925867 2.33219527 16.00283876 6.56693931l56.98100451 56.98216847c5.45847751 5.45847751 12.86258461 8.52654194 20.58339556 8.52654193 7.71964701 0 15.1237541-3.06690048 20.58339556-8.52537685l66.0454764-66.04314738c11.36755826-11.36755826 11.36755826-29.79806777 0.00116395-41.16562602l-56.98333355-56.98566144c-8.82228679-8.82345074-8.82228679-23.18106169 0.00116395-32.00567752 4.23474403-4.23474403 9.91910571-6.56693931 16.0040027-6.5669393 6.08489813 0 11.76809472 2.33219527 16.00283876 6.5669393l56.98100451 56.9844975c5.45847751 5.45847751 12.86258461 8.52654194 20.58339556 8.52654194 7.71964701 0 15.1237541-3.06690048 20.58339556-8.52537686l74.62907107-74.62674204c8.30764373-8.30764373 10.80634027-20.79530667 6.33523314-31.66102984-38.69021639-94.01784206-17.24520107-201.21380864 54.63483733-273.09268309 47.40188957-47.40072562 110.42471139-73.50663737 177.45988608-73.50663737s130.05799538 26.10474781 177.45988608 73.50663737C956.32911246 278.44983808 956.32911246 437.66550983 858.47822677 535.51755947z" p-id="5441"></path></svg>